<?xml version="1.0" standalone="no"?>
<!DOCTYPE svg PUBLIC "-//W3C//DTD SVG 20010904//EN"
 "http://www.w3.org/TR/2001/REC-SVG-20010904/DTD/svg10.dtd">
<svg version="1.0" xmlns="http://www.w3.org/2000/svg"
 width="512.000000pt" height="512.000000pt" viewBox="0 0 512.000000 512.000000"
 preserveAspectRatio="xMidYMid meet">
<metadata>
Created by potrace 1.14, written by Peter Selinger 2001-2017
</metadata>
<g transform="translate(0.000000,512.000000) scale(0.100000,-0.100000)"
fill="#000000" stroke="none">
<path d="M713 4659 c-42 -8 -90 -44 -110 -82 -16 -29 -17 -102 -18 -847 l0
-814 23 -28 c13 -15 30 -28 38 -28 11 0 14 -20 14 -99 0 -98 0 -99 -26 -105
-48 -12 -51 -37 -50 -471 l1 -400 -220 0 c-234 1 -265 -4 -314 -48 -48 -45
-51 -66 -51 -382 0 -323 3 -345 58 -392 41 -36 73 -40 278 -41 104 0 200 -1
214 -1 l25 -1 0 -128 c0 -112 3 -133 23 -174 50 -101 164 -170 270 -162 98 8
192 77 234 172 16 35 20 68 20 168 l1 124 41 1 c23 0 519 1 1104 1 l1062 1 25
23 c14 13 25 29 25 37 0 11 21 13 95 13 l95 -1 20 -32 c23 -39 43 -42 255 -42
83 0 153 0 156 0 4 -1 9 -61 11 -133 4 -115 7 -139 27 -178 48 -92 138 -151
234 -152 112 -2 197 46 251 142 30 53 31 61 34 188 4 127 5 132 25 133 12 0
109 1 215 1 179 0 197 2 235 22 27 15 49 37 64 66 23 42 23 49 23 341 0 309
-3 334 -43 377 -48 52 -66 55 -304 56 l-223 1 0 1202 c0 662 1 1204 1 1206 5
6 -41 84 -57 98 -45 38 -70 40 -419 35 -409 -5 -323 -5 -721 0 l-331 5 0 92
c0 50 -3 106 -7 124 -8 37 -55 89 -94 105 -40 16 -632 18 -697 2 -37 -9 -55
-9 -70 -1 -30 17 -636 17 -694 1 -34 -10 -49 -10 -65 -2 -23 13 -627 19 -683
7z"/>
</g>
</svg>
